<svg xmlns="http://www.w3.org/2000/svg" viewBox="0 0 24 24">

  <defs>
    <linearGradient id="instagramGradient" x1="0%" y1="100%" x2="100%" y2="0%">
      <stop offset="0%" stop-color="#FEDA75"/>
      <stop offset="25%" stop-color="#FA7E1E"/>
      <stop offset="50%" stop-color="#D62976"/>
      <stop offset="75%" stop-color="#962FBF"/>
      <stop offset="100%" stop-color="#4F5BD5"/>
    </linearGradient>
  </defs>

  <path
    fill="url(#instagramGradient)"
    d="M7 2h10a5 5 0 0 1 5 5v10a5 5 0 0 1-5 5H7a5 5 0 0 1-5-5V7a5 5 0 0 1 5-5zm0 2a3 3 0 0 0-3 3v10a3 3 0 0 0 3 3h10a3 3 0 0 0 3-3V7a3 3 0 0 0-3-3H7zm10.5 1.5A1.25 1.25 0 1 1 17.5 8a1.25 1.25 0 0 1 0-2.5zM12 7a5 5 0 1 1 0 10 5 5 0 0 1 0-10zm0 2a3 3 0 1 0 0 6 3 3 0 0 0 0-6z"
  />

</svg>